<svg xmlns="http://www.w3.org/2000/svg" width="64" height="64" viewBox="0 0 64 64" fill="none">
  <defs>
    <linearGradient id="sf-bg" x1="0" y1="0" x2="0" y2="1">
      <stop offset="0%" stop-color="#caff5e"/>
      <stop offset="100%" stop-color="#a3dc34"/>
    </linearGradient>
    <linearGradient id="sf-glow" x1="0" y1="0" x2="1" y2="1">
      <stop offset="0%" stop-color="#ffffff" stop-opacity="0.35"/>
      <stop offset="100%" stop-color="#ffffff" stop-opacity="0"/>
    </linearGradient>
  </defs>
  <rect width="64" height="64" rx="15" fill="url(#sf-bg)"/>
  <rect width="64" height="64" rx="15" fill="url(#sf-glow)"/>
  <g transform="translate(32 32) rotate(8)">
    <path d="M0 -22 L4.5 -4.5 L22 0 L4.5 4.5 L0 22 L-4.5 4.5 L-22 0 L-4.5 -4.5 Z" fill="#0f1b00"/>
  </g>
  <g transform="translate(50 14)">
    <path d="M0 -6 L1.4 -1.4 L6 0 L1.4 1.4 L0 6 L-1.4 1.4 L-6 0 L-1.4 -1.4 Z" fill="#0f1b00" opacity="0.9"/>
  </g>
  <g transform="translate(14 52)">
    <path d="M0 -3.5 L0.9 -0.9 L3.5 0 L0.9 0.9 L0 3.5 L-0.9 0.9 L-3.5 0 L-0.9 -0.9 Z" fill="#0f1b00" opacity="0.7"/>
  </g>
</svg>
